<?xml version="1.0" encoding="UTF-8"?>
<svg version="1.1" xmlns="http://www.w3.org/2000/svg" width="512" height="512">
	<path
		d="M0 0 C0.86544434 -0.03456299 1.73088867 -0.06912598 2.62255859 -0.10473633 C6.60680655 -0.13082042 8.95603412 0.07328862 12.41796875 2.15234375 C15.7118413 7.19814851 16.92216817 12.64767452 18.4375 18.4375 C23.47671931 36.47630612 29.97785248 50.52539288 46.5625 60.4375 C56.15539678 65.48779942 64.77700915 67.78554992 75.5625 67.6875 C76.41328125 67.69523437 77.2640625 67.70296875 78.140625 67.7109375 C83.64017088 67.69406773 88.26605789 66.88797792 93.5625 65.4375 C109.15314091 63.07989089 121.70825702 66.31078175 134.7578125 74.87890625 C143.79915618 81.99440318 148.20061463 92.53583603 152.125 103 C152.66738612 104.41391662 153.2111481 105.82730603 153.75610352 107.24023438 C154.99587655 110.46103312 156.22737901 113.68485331 157.45410156 116.91064453 C159.78848494 123.0414256 162.15536981 129.15951011 164.5234375 135.27734375 C168.25198736 144.91439954 171.97553905 154.55335895 175.69140625 164.1953125 C175.93052168 164.81572481 176.16963711 165.43613712 176.41599846 166.07534981 C179.39185364 173.79709905 182.36401889 181.52025954 185.33261967 189.24480057 C187.31665601 194.40727852 189.3025851 199.56902599 191.28967953 204.73032761 C192.46614286 207.78652451 193.64109995 210.84328724 194.81393433 213.90087891 C199.09447668 225.06013673 203.39019208 236.20640139 208.01953125 247.2265625 C208.338685 247.98661591 208.65783875 248.74666931 208.98666382 249.52975464 C215.12002468 263.95042604 224.2508259 275.48304673 238.5625 282.4375 C245.08489885 284.99857165 251.83509123 286.96357164 258.52392578 289.03662109 C287.14280852 297.96686713 310.3866763 312.35172443 324.80932617 339.56860352 C331.15927862 352.21199981 333.74332566 365.1105226 333.8125 379.1875 C333.8434375 380.73824219 333.8434375 380.73824219 333.875 382.3203125 C333.90972167 389.21256336 332.96250106 394.97942456 330.5625 401.4375 C330.2325 402.34242188 329.9025 403.24734375 329.5625 404.1796875 C323.55867028 416.98473057 312.71155045 426.78111677 299.70976257 432.06019592 C287.65988333 436.28581791 274.34361113 435.1216603 261.74185216 435.0471462 C257.82174135 435.0295126 253.90169523 435.04106076 249.98156738 435.04881287 C242.32397605 435.05943485 234.66666181 435.04362058 227.00911269 435.0186746 C218.08736466 434.9906436 209.16567154 434.98940128 200.24388679 434.98923159 C184.33074499 434.9880468 168.41772999 434.96314195 152.50463867 434.92456055 C137.06517008 434.8871518 121.62579365 434.86595975 106.1862793 434.86303711 C105.23365618 434.8628543 104.28103307 434.86267149 103.29954258 434.86248314 C102.34855581 434.86230417 101.39756904 434.8621252 100.41776448 434.8619408 C98.50299346 434.86157538 96.58822244 434.86120301 94.67345142 434.86082363 C93.25698271 434.86054536 93.25698271 434.86054536 91.81189846 434.86026147 C77.08617077 434.85669388 62.36045729 434.8382505 47.63474402 434.81833039 C42.29905472 434.8113073 36.96336879 434.80652496 31.62767587 434.80336904 C23.17285309 434.79832512 14.71809435 434.78692333 6.26330457 434.76206874 C2.40050646 434.75083476 -1.46222864 434.74273305 -5.32504463 434.74320221 C-9.50711432 434.74356634 -13.68898153 434.72845358 -17.87101746 434.71165466 C-19.0981287 434.71406975 -20.32523994 434.71648483 -21.58953637 434.7189731 C-22.70642006 434.71190751 -23.82330375 434.70484192 -24.9740324 434.69756222 C-26.42224016 434.69463583 -26.42224016 434.69463583 -27.89970464 434.69165033 C-30.58863784 434.42236413 -32.17865449 433.90081475 -34.4375 432.4375 C-36.79980491 429.01623083 -37.69586526 426.4073519 -37.375 422.3125 C-36.39855281 418.27651829 -35.72901862 416.85773428 -32.4375 414.4375 C-29.50276055 413.45925352 -27.58014959 413.30165731 -24.52107239 413.27928162 C-23.50724991 413.2694928 -22.49342743 413.25970398 -21.44888306 413.24961853 C-20.33758026 413.24386307 -19.22627747 413.2381076 -18.08129883 413.23217773 C-16.91043228 413.22227814 -15.73956573 413.21237854 -14.53321838 413.20217896 C-11.32276745 413.17598839 -8.11232178 413.15412746 -4.9018271 413.13417697 C-1.54655931 413.11230789 1.80866331 413.08492371 5.16389465 413.05812073 C11.51739457 413.0082063 17.87091956 412.96326284 24.22446853 412.92009836 C31.45780388 412.8707153 38.69109391 412.81580114 45.92438543 412.76041877 C60.80371472 412.64661792 75.68308669 412.53977475 90.5625 412.4375 C89.53116943 411.82529099 88.49983887 411.21308197 87.43725586 410.58232117 C86.07138478 409.768128 84.70558447 408.95381611 83.33984375 408.1394043 C82.32247131 407.53611927 82.32247131 407.53611927 81.2845459 406.92064667 C76.41927215 404.01492516 71.8922845 400.91561099 67.5625 397.25 C66.91152344 396.71101074 66.26054687 396.17202148 65.58984375 395.61669922 C58.84934672 389.96877311 52.47332785 383.93374621 46.09863281 377.88085938 C43.67436003 375.60299849 41.16109743 373.435423 38.640625 371.265625 C35.77735713 368.74681041 32.98464008 366.15431596 30.1875 363.5625 C24.69080718 358.46975533 19.14547903 353.43568253 13.5625 348.4375 C7.69258174 343.17448767 1.85320122 337.88026913 -3.9519043 332.54589844 C-8.13321224 328.70709828 -12.34738489 324.90583284 -16.57421875 321.1171875 C-17.54514905 320.24192539 -18.51316527 319.36183473 -19.4375 318.4375 C-21.04354609 318.34020793 -22.65387286 318.31285404 -24.26286316 318.31292725 C-25.30733612 318.31036423 -26.35180908 318.30780121 -27.42793274 318.30516052 C-29.16166389 318.30831017 -29.16166389 318.30831017 -30.93041992 318.31152344 C-32.14012451 318.3096553 -33.3498291 318.30778717 -34.59619141 318.30586243 C-37.23392057 318.30184689 -39.87160147 318.29950915 -42.50932884 318.29940033 C-46.68231032 318.29826197 -50.8552029 318.28543716 -55.02815247 318.26983643 C-55.73192982 318.26726357 -56.43570718 318.26469072 -57.16081113 318.2620399 C-58.60034123 318.25677293 -60.03987126 318.25148745 -61.47940123 318.24618387 C-71.19762526 318.21106133 -80.91574048 318.18451917 -90.6340332 318.18701172 C-97.18432819 318.18860146 -103.73432162 318.17253513 -110.28451997 318.13630509 C-113.75123312 318.11785574 -117.21744296 318.10849222 -120.68419456 318.12078094 C-124.5556118 318.13436977 -128.42625795 318.10926028 -132.29760742 318.08105469 C-134.01615685 318.09634972 -134.01615685 318.09634972 -135.76942444 318.11195374 C-144.43840942 317.99859459 -144.43840942 317.99859459 -148.13374329 315.02227783 C-150.86651271 311.95615467 -151.37895835 311.21317685 -151.6875 307.125 C-151.42118917 303.19691531 -150.87231646 301.48102057 -148.4375 298.4375 C-145.60987545 296.72150388 -143.48602499 296.18406237 -140.19805908 296.1590271 C-138.94030922 296.14228188 -138.94030922 296.14228188 -137.65715027 296.12519836 C-136.74580826 296.12303818 -135.83446625 296.12087799 -134.89550781 296.11865234 C-133.92932022 296.10860672 -132.96313263 296.0985611 -131.96766663 296.08821106 C-128.77532545 296.05732994 -125.58306832 296.04033009 -122.390625 296.0234375 C-120.17673009 296.00472983 -117.96284233 295.98515673 -115.7489624 295.9647522 C-109.92275205 295.91338268 -104.09651856 295.87378266 -98.27020264 295.83660889 C-92.32460791 295.79659952 -86.37910979 295.74549317 -80.43359375 295.6953125 C-68.76829699 295.5984961 -57.10294574 295.51410952 -45.4375 295.4375 C-46.52592223 294.33713376 -47.61611961 293.23852327 -48.70703125 292.140625 C-49.31393799 291.52864258 -49.92084473 290.91666016 -50.54614258 290.28613281 C-52.99009632 287.8973865 -55.55780883 285.67679838 -58.14453125 283.4453125 C-60.90655794 281.02677465 -63.61151141 278.54862266 -66.3125 276.0625 C-70.00289074 272.66699427 -73.70455455 269.28634817 -77.4375 265.9375 C-81.1258049 262.62748278 -84.78815765 259.290355 -88.4375 255.9375 C-93.73871923 251.06806955 -99.07854811 246.24326976 -104.4375 241.4375 C-110.31308193 236.16842976 -116.16096843 230.87122753 -121.96948242 225.52832031 C-125.16292878 222.59410726 -128.38535961 219.69552881 -131.625 216.8125 C-146.61464562 203.26416646 -157.29595896 189.17529148 -158.640625 168.28125 C-158.91862918 148.45028531 -153.03842225 131.50570984 -139.20703125 117.1171875 C-136.24128807 114.35615934 -133.62434035 111.9356133 -129.859375 110.35546875 C-126.06188403 108.74665147 -123.27944083 107.33979886 -121.54345703 103.41748047 C-120.09241801 99.02487935 -119.028977 94.54444666 -117.92578125 90.0546875 C-110.44859767 60.15620291 -87.53580754 33.39548689 -61.55322266 17.66210938 C-49.15558385 10.48618551 -36.38165903 5.60168401 -22.4375 2.4375 C-21.41785156 2.19257812 -20.39820313 1.94765625 -19.34765625 1.6953125 C-12.95468975 0.3862338 -6.50704281 0.15220812 0 0 Z "
		fill="#000" transform="translate(178.4375,38.5625)" />
	<path
		d="M0 0 C0.3403125 1.26972656 0.680625 2.53945313 1.03125 3.84765625 C7.17464146 25.97898106 17.12844933 45.20366992 37.71875 57.23046875 C46.10276952 61.92392012 54.3905762 65.76802259 64 67 C63.38875804 70.33252464 62.0184064 73.15372533 60.52368164 76.17578125 C53.09079292 91.24923401 51.80984403 105.97083554 56.68359375 122.32421875 C60.4742689 132.90886361 66.33969537 142.45975806 72.078125 152.07421875 C75.53025389 157.86817777 78.88723159 163.71637703 82.25 169.5625 C87.14114497 178.05673917 92.05387423 186.53765778 97 195 C105.02289258 208.73042338 112.95858364 222.51078149 120.89550781 236.29101562 C122.7839849 239.56931056 124.67312499 242.84722249 126.5625 246.125 C127.17359619 247.18581787 127.78469238 248.24663574 128.41430664 249.33959961 C131.5972099 254.85867899 134.79616701 260.36772222 138.01953125 265.86328125 C138.66656006 266.96720215 139.31358887 268.07112305 139.98022461 269.20849609 C141.2167783 271.3157837 142.45576341 273.42164697 143.69750977 275.52587891 C144.24850342 276.4647998 144.79949707 277.4037207 145.3671875 278.37109375 C145.85300293 279.19536865 146.33881836 280.01964355 146.83935547 280.86889648 C148 283 148 283 149 286 C139.02442912 291.46091252 128.96960831 296.65430998 118.5625 301.25 C117.66958252 301.65661865 116.77666504 302.0632373 115.85668945 302.48217773 C115.018396 302.84384033 114.18010254 303.20550293 113.31640625 303.578125 C112.57849854 303.90200195 111.84059082 304.22587891 111.08032227 304.55957031 C108.34216403 305.13927193 107.31846024 304.4919253 105 303 C102.9743112 301.41021891 101.01174702 299.80327414 99.0625 298.125 C98.49547363 297.6395874 97.92844727 297.1541748 97.34423828 296.65405273 C87.8414886 288.46595932 78.79481642 280.05516779 70.4375 270.69140625 C69.633125 269.80324219 68.82875 268.91507812 68 268 C67.16597656 267.071875 66.33195313 266.14375 65.47265625 265.1875 C62.8278877 262.84773635 61.89083882 262.33540129 58.4375 262.4375 C55.47873092 262.63475127 54.06716729 262.96232079 51.4375 264.4375 C49.65028054 267.62341295 49.12985306 269.86706141 49.296875 273.51171875 C50.78633189 278.78274118 55.2093449 282.24973239 59 286 C60.51038789 287.67820877 62.0106272 289.36561317 63.5 291.0625 C71.10946237 299.48820228 79.08044221 306.97138847 88 314 C88.98742187 314.79277344 89.97484375 315.58554687 90.9921875 316.40234375 C115.78282292 335.96901734 144.66492107 351.11082728 175 360 C175.79277344 360.23960449 176.58554687 360.47920898 177.40234375 360.72607422 C189.83409902 364.41120167 202.34889062 366.70080197 215.22265625 368.13671875 C216.36897144 368.26608448 216.36897144 368.26608448 217.53844452 368.39806366 C236.36274868 370.47277028 255.17346717 370.67179463 274.09332275 370.73822021 C278.62091985 370.75829571 283.14832078 370.80019372 287.67578125 370.83984375 C296.45046728 370.91367926 305.2250738 370.96483735 314 371 C310.95343678 380.43783658 305.84521243 386.38688152 297 391 C290.3248784 394.02871233 284.73305506 394.42502101 277.45361328 394.37231445 C276.32068344 394.37596512 275.1877536 394.37961578 274.02049255 394.38337708 C270.28694505 394.39146009 266.55383495 394.37788197 262.8203125 394.36328125 C260.20685832 394.36276202 257.59340375 394.36328216 254.97994995 394.36479187 C249.50090387 394.36567326 244.02198184 394.35463757 238.54296875 394.33618164 C232.25607229 394.3151222 225.96935875 394.3114825 219.6824342 394.3177436 C213.59024282 394.32349506 207.49812454 394.31760996 201.40594101 394.30657005 C198.8362745 394.30275404 196.26660259 394.30155468 193.69693375 394.3031559 C175.80286932 394.3050187 158.07577917 394.16222351 140.6875 389.4375 C139.73166016 389.18137939 138.77582031 388.92525879 137.79101562 388.66137695 C112.49248801 381.55605481 90.82251466 368.45237053 71.734375 350.5546875 C69.52338999 348.48899579 67.28938942 346.47719995 65 344.5 C61.12027047 341.13542128 57.34142491 337.66411092 53.5625 334.1875 C50.39220211 331.27210044 47.20605243 328.37616922 44 325.5 C40.3116951 322.18998278 36.64934235 318.852855 33 315.5 C27.69878077 310.63056955 22.35895189 305.80576976 17 301 C11.12399299 295.73054855 5.27854557 290.42994352 -0.53417969 285.09082031 C-5.32574851 280.69316338 -10.15810864 276.34208322 -15 272 C-20.87754442 266.72916984 -26.72499827 261.42768328 -32.53857422 256.08642578 C-35.67631113 253.20606171 -38.83003818 250.34483753 -42 247.5 C-45.6883049 244.18998278 -49.35065765 240.852855 -53 237.5 C-58.30121923 232.63056955 -63.64104811 227.80576976 -69 223 C-74.40293305 218.15478907 -79.78363904 213.28791402 -85.125 208.375 C-88.36217216 205.39781719 -91.61137729 202.44047144 -94.9375 199.5625 C-99.06587619 195.98342958 -103.06564504 192.26990039 -107.06860352 188.55200195 C-110.46331427 185.40276324 -113.90042726 182.31143757 -117.375 179.25 C-127.04483008 170.53773426 -134.53685336 161.33521353 -135.37109375 147.80078125 C-135.63315515 138.16949208 -134.84786064 130.5671188 -130 122 C-129.55398437 121.18015625 -129.10796875 120.3603125 -128.6484375 119.515625 C-124.63425823 112.83280141 -118.4091648 106.79674007 -111 104 C-107.60772576 104.30485065 -105.99411234 105.64578683 -103.6875 108.0625 C-103.07390625 108.70316406 -102.4603125 109.34382813 -101.828125 110.00390625 C-99.5734533 112.46573796 -97.38632497 114.97924146 -95.20703125 117.5078125 C-92.24202261 120.85591076 -89.18387833 124.11276246 -86.125 127.375 C-81.42818367 132.38637375 -76.77772499 137.43064026 -72.19921875 142.55078125 C-68.30402917 146.88876325 -64.3515627 151.17452574 -60.40722656 155.46777344 C-57.64566151 158.47464059 -54.88813985 161.48521589 -52.12988281 164.49511719 C-49.81450701 167.02143114 -47.49811546 169.546799 -45.1796875 172.0703125 C-40.95233249 176.67349765 -36.73473917 181.28413776 -32.5625 185.9375 C-28.528316 190.43521681 -24.43046768 194.87122867 -20.32080078 199.29980469 C-16.92783544 202.96556575 -13.61907618 206.68929115 -10.40234375 210.51171875 C-8.40484975 212.63162185 -6.80671393 213.95615685 -3.84375 214.1171875 C0.93466424 213.67328667 0.93466424 213.67328667 5.0625 211.4375 C6.48460438 207.74002862 6.97991435 204.81966612 6 201 C3.84391286 197.24224813 0.93913805 194.15487212 -2 191 C-2.59538574 190.35788574 -3.19077148 189.71577148 -3.80419922 189.05419922 C-7.23229813 185.36990484 -10.68439245 181.70928275 -14.15234375 178.0625 C-18.52876595 173.45596303 -22.78633429 168.75601872 -27 164 C-27.76441406 163.14148438 -28.52882813 162.28296875 -29.31640625 161.3984375 C-31.21310665 159.26753584 -33.10761526 157.13473374 -35 155 C-33.68553798 151.34656879 -32.07723774 148.53524213 -29.75 145.4375 C-15.21187602 125.03576677 -11.40447906 100.9745787 -14.3046875 76.42041016 C-18.35281299 52.6841437 -32.66345366 32.92143026 -51 18 C-47.57482507 14.0143419 -43.74866032 12.14150253 -39.0625 10 C-38.30614258 9.65114746 -37.54978516 9.30229492 -36.77050781 8.94287109 C-25.13039286 3.68786774 -12.8722675 0 0 0 Z "
		fill="#80F" transform="translate(176,59)" />
	<path
		d="M0 0 C1.67578125 1.34765625 1.67578125 1.34765625 3.3125 3.0625 C3.92609375 3.70316406 4.5396875 4.34382812 5.171875 5.00390625 C7.4265467 7.46573796 9.61367503 9.97924146 11.79296875 12.5078125 C14.75797739 15.85591076 17.81612167 19.11276246 20.875 22.375 C25.57181633 27.38637375 30.22227501 32.43064026 34.80078125 37.55078125 C38.69597083 41.88876325 42.6484373 46.17452574 46.59277344 50.46777344 C49.35433849 53.47464059 52.11186015 56.48521589 54.87011719 59.49511719 C57.18549299 62.02143114 59.50188454 64.546799 61.8203125 67.0703125 C66.04766751 71.67349765 70.26526083 76.28413776 74.4375 80.9375 C78.471684 85.43521681 82.56953232 89.87122867 86.67919922 94.29980469 C90.07216456 97.96556575 93.38092382 101.68929115 96.59765625 105.51171875 C98.12852917 107.2483082 98.12852917 107.2483082 101 109 C103.19580176 109.02558233 103.19580176 109.02558233 105.5 108.625 C108.07261664 108.25625828 110.39031074 108 113 108 C114.60986328 109.31347656 114.60986328 109.31347656 116.3203125 111.140625 C116.93777344 111.79933594 117.55523437 112.45804687 118.19140625 113.13671875 C119.14853516 114.18279297 119.14853516 114.18279297 120.125 115.25 C120.77082031 115.93191406 121.41664063 116.61382812 122.08203125 117.31640625 C127.65531096 123.33367889 127.65531096 123.33367889 128 127 C127.34 127.99 126.68 128.98 126 130 C125.66737752 133.90831419 125.76971439 136.71326332 128 140 C131.70735663 142.47157109 133.61147745 142.22699255 138 142 C138.82129395 141.76458496 139.64258789 141.52916992 140.48876953 141.28662109 C143 141 143 141 144.96044922 142.27587891 C145.56904785 142.91960449 146.17764648 143.56333008 146.8046875 144.2265625 C147.46984375 144.92910156 148.135 145.63164062 148.8203125 146.35546875 C149.49835938 147.10441406 150.17640625 147.85335937 150.875 148.625 C151.57625 149.35074219 152.2775 150.07648438 153 150.82421875 C156.81462001 154.94550429 156.81462001 154.94550429 158 157 C157.71386719 159.61987305 157.71386719 159.61987305 157 162 C156.36982403 165.20438536 156.22147905 167.80450225 157 171 C159.58509654 174.74928552 162.77067554 177.80508234 166 181 C167.51038789 182.67820877 169.0106272 184.36561317 170.5 186.0625 C178.10946237 194.48820228 186.08044221 201.97138847 195 209 C195.98742187 209.79277344 196.97484375 210.58554687 197.9921875 211.40234375 C222.78282292 230.96901734 251.66492107 246.11082728 282 255 C282.79277344 255.23960449 283.58554687 255.47920898 284.40234375 255.72607422 C296.83409902 259.41120167 309.34889062 261.70080197 322.22265625 263.13671875 C323.36897144 263.26608448 323.36897144 263.26608448 324.53844452 263.39806366 C343.36274868 265.47277028 362.17346717 265.67179463 381.09332275 265.73822021 C385.62091985 265.75829571 390.14832078 265.80019372 394.67578125 265.83984375 C403.45046728 265.91367926 412.2250738 265.96483735 421 266 C417.95343678 275.43783658 412.84521243 281.38688152 404 286 C397.3248784 289.02871233 391.73305506 289.42502101 384.45361328 289.37231445 C383.32068344 289.37596512 382.1877536 289.37961578 381.02049255 289.38337708 C377.28694505 289.39146009 373.55383495 289.37788197 369.8203125 289.36328125 C367.20685832 289.36276202 364.59340375 289.36328216 361.97994995 289.36479187 C356.50090387 289.36567326 351.02198184 289.35463757 345.54296875 289.33618164 C339.25607229 289.3151222 332.96935875 289.3114825 326.6824342 289.3177436 C320.59024282 289.32349506 314.49812454 289.31760996 308.40594101 289.30657005 C305.8362745 289.30275404 303.26660259 289.30155468 300.69693375 289.3031559 C282.80286932 289.3050187 265.07577917 289.16222351 247.6875 284.4375 C246.73166016 284.18137939 245.77582031 283.92525879 244.79101562 283.66137695 C219.49248801 276.55605481 197.82251466 263.45237053 178.734375 245.5546875 C176.52338999 243.48899579 174.28938942 241.47719995 172 239.5 C168.12027047 236.13542128 164.34142491 232.66411092 160.5625 229.1875 C157.39220211 226.27210044 154.20605243 223.37616922 151 220.5 C147.3116951 217.18998278 143.64934235 213.852855 140 210.5 C134.69878077 205.63056955 129.35895189 200.80576976 124 196 C118.12399299 190.73054855 112.27854557 185.42994352 106.46582031 180.09082031 C101.67425149 175.69316338 96.84189136 171.34208322 92 167 C86.12245558 161.72916984 80.27500173 156.42768328 74.46142578 151.08642578 C71.32368887 148.20606171 68.16996182 145.34483753 65 142.5 C61.3116951 139.18998278 57.64934235 135.852855 54 132.5 C48.69878077 127.63056955 43.35895189 122.80576976 38 118 C32.59706695 113.15478907 27.21636096 108.28791402 21.875 103.375 C18.63782784 100.39781719 15.38862271 97.44047144 12.0625 94.5625 C7.93412381 90.98342958 3.93435496 87.26990039 -0.06860352 83.55200195 C-3.46331427 80.40276324 -6.90042726 77.31143757 -10.375 74.25 C-20.04483008 65.53773426 -27.53685336 56.33521353 -28.37109375 42.80078125 C-28.63315515 33.16949208 -27.84786064 25.5671188 -23 17 C-22.33097656 15.77023438 -22.33097656 15.77023438 -21.6484375 14.515625 C-17.86481293 8.2166299 -8.28821483 -3.45755868 0 0 Z "
		fill="#FFF" transform="translate(69,164)" />
	<path
		d="M0 0 C9.7322271 5.6940287 13.87429157 16.01161208 17.25 26.31640625 C17.25 27.63640625 17.25 28.95640625 17.25 30.31640625 C16.11820312 30.8475 14.98640625 31.37859375 13.8203125 31.92578125 C12.33823248 32.6386805 10.85647843 33.35225768 9.375 34.06640625 C8.62863281 34.41445312 7.88226563 34.7625 7.11328125 35.12109375 C6.39785156 35.46914062 5.68242187 35.8171875 4.9453125 36.17578125 C4.28547363 36.48999023 3.62563477 36.80419922 2.94580078 37.12792969 C0.8275174 38.61249685 0.17563573 39.92218641 -0.75 42.31640625 C-1.25046695 46.23673072 -1.09198493 47.80342886 1.125 51.12890625 C3.57704599 53.65307124 4.43581646 54.24000193 7.9140625 54.56640625 C11.8972024 54.26790396 15.05153731 52.97258311 18.625 51.31640625 C19.26566406 51.03023437 19.90632813 50.7440625 20.56640625 50.44921875 C22.13207163 49.74817455 23.69169156 49.03365507 25.25 48.31640625 C28.29872126 55.48160368 31.21960287 62.69241735 34.0625 69.94140625 C34.37646729 70.73530762 34.69043457 71.52920898 35.01391602 72.34716797 C37.25 78.08151143 37.25 78.08151143 37.25 80.31640625 C36.12980469 80.78691406 35.00960937 81.25742188 33.85546875 81.7421875 C32.38265077 82.37071492 30.91000337 82.99964213 29.4375 83.62890625 C28.69951172 83.93763672 27.96152344 84.24636719 27.20117188 84.56445312 C26.13286133 85.02368164 26.13286133 85.02368164 25.04296875 85.4921875 C24.3883667 85.76973877 23.73376465 86.04729004 23.05932617 86.33325195 C21.04900688 87.42562218 19.73132853 88.57816111 18.25 90.31640625 C17.21054462 94.94198268 17.70099549 98.4309151 20.1875 102.44140625 C23.84260343 104.67922468 25.50068395 104.75051676 29.625 104.046875 C34.69818958 102.63513921 39.47160708 100.50751367 44.25 98.31640625 C47.42971954 104.43180364 50.08863866 110.6352713 52.5625 117.06640625 C52.93439453 117.99839844 53.30628906 118.93039063 53.68945312 119.890625 C54.03556641 120.78910156 54.38167969 121.68757813 54.73828125 122.61328125 C55.05321533 123.42120117 55.36814941 124.22912109 55.69262695 125.06152344 C56.32161582 127.60613194 56.24704384 128.90465567 55.25 131.31640625 C52.81640625 132.9140625 52.81640625 132.9140625 49.8125 134.37890625 C45.35035566 136.52644613 45.35035566 136.52644613 42.25 140.31640625 C42.11193366 142.50829133 42.11193366 142.50829133 42.4375 144.81640625 C42.51355469 145.58984375 42.58960938 146.36328125 42.66796875 147.16015625 C43.36686822 149.7493677 44.08802859 150.7431639 46.25 152.31640625 C52.52607576 153.60186755 58.45964181 151.61612298 64.25 149.31640625 C64.93804673 150.9620111 65.62538101 152.60791381 66.3125 154.25390625 C66.76625 155.33800781 67.22 156.42210937 67.6875 157.5390625 C68.8143073 160.24644937 69.91274534 162.96399862 71 165.6875 C71.300271 166.43330322 71.60054199 167.17910645 71.90991211 167.94750977 C72.49950096 169.4132688 73.08388531 170.88113501 73.66235352 172.35131836 C75.04667277 175.77657479 76.38851235 178.51455257 78.52734375 181.57421875 C80.25 184.31640625 80.25 184.31640625 80.41015625 186.40234375 C78.54862559 189.47355594 75.66448482 191.07441414 72.6875 192.94140625 C72.0272583 193.36728027 71.3670166 193.7931543 70.68676758 194.23193359 C68.54860484 195.6054437 66.39954924 196.96080035 64.25 198.31640625 C62.75482939 199.27414826 61.26003702 200.23248101 59.765625 201.19140625 C58.32367207 202.10926074 56.8809841 203.02596167 55.4375 203.94140625 C54.40677368 204.59810303 54.40677368 204.59810303 53.35522461 205.26806641 C48.48438759 208.31640625 48.48438759 208.31640625 46.25 208.31640625 C45.83862793 207.59388672 45.42725586 206.87136719 45.00341797 206.12695312 C37.22233749 192.46745726 29.41123284 178.82826705 21.47216797 165.25976562 C17.20346045 157.96130219 12.96963903 150.64333771 8.75 143.31640625 C3.94155242 134.96838116 -0.88905711 126.63397393 -5.75 118.31640625 C-11.21561987 108.96239484 -16.65404723 99.59310629 -22.05004883 90.19873047 C-24.95636055 85.1412098 -27.873622 80.09175558 -30.84886169 75.07449341 C-31.8839884 73.32760622 -32.91444726 71.57804687 -33.94360352 69.82763672 C-35.22926763 67.64419589 -36.52341335 65.46571636 -37.82788086 63.29345703 C-44.88406848 51.25888241 -49.2521272 39.29484078 -46.0546875 25.265625 C-42.32644721 13.93992025 -34.18087643 4.8644705 -23.9375 -1.18359375 C-16.24714347 -4.60832509 -7.46188122 -3.43198704 0 0 Z "
		fill="#FFF" transform="translate(295.75,126.68359375)" />
	<path
		d="M0 0 C4.17327734 1.97017511 7.91327304 4.51247255 11.7578125 7.05078125 C22.38601133 13.4405056 33.58195769 16.9857717 45.33862305 20.69506836 C67.86630729 27.83394466 85.26569256 38.77945521 96.4375 60.1875 C99.83514282 67.47366322 102.07866767 73.93587422 102 82 C91.80161661 82.04678377 81.60325964 82.08209912 71.40478992 82.10362434 C66.66687484 82.11396651 61.92903431 82.12794572 57.19116211 82.15087891 C16.00670802 82.34473412 16.00670802 82.34473412 0 80 C-1.14782959 79.83886719 -2.29565918 79.67773438 -3.47827148 79.51171875 C-6.38042376 79.05709024 -9.24778903 78.52845345 -12.125 77.9375 C-13.14940186 77.72834961 -14.17380371 77.51919922 -15.22924805 77.30371094 C-39.78540586 71.99166107 -63.19168467 62.37661691 -85 50 C-83.58669405 47.17338811 -81.86459557 46.86874134 -78.98828125 45.6015625 C-77.93133057 45.12847656 -76.87437988 44.65539062 -75.78540039 44.16796875 C-74.63934326 43.65878906 -73.49328613 43.14960938 -72.3125 42.625 C-33.65044126 25.28122616 -33.65044126 25.28122616 0 0 Z "
		fill="#FAA" transform="translate(389,328)" />
	<path
		d="M0 0 C13.85689511 5.87553151 23.95701697 21.15724368 29.7265625 34.3359375 C36.47247906 51.98807651 37.46000847 70.37584214 30.171875 88.09570312 C27.03199714 95.05884402 23.41054683 101.5929383 19.08203125 107.8828125 C15.85832696 106.8082444 15.33634204 106.2772494 13.26953125 103.7578125 C9.70608109 99.55127685 5.98070047 95.5245401 2.20703125 91.5078125 C-2.48401975 86.50365569 -7.12934466 81.4670932 -11.69921875 76.3515625 C-13.83357048 73.97672043 -15.9883108 71.62265819 -18.15258789 69.27514648 C-19.56915599 67.73479827 -20.97621298 66.18616621 -22.3828125 64.63671875 C-23.88220282 63.00795115 -25.40707768 61.4011003 -26.984375 59.84765625 C-28.66796875 58.1328125 -28.66796875 58.1328125 -30.91796875 54.8828125 C-30.62106732 49.32900929 -29.35495727 44.4477524 -27.35546875 39.2578125 C-27.09080811 38.5683252 -26.82614746 37.87883789 -26.5534668 37.16845703 C-21.42942504 24.27780453 -13.81763554 13.42151324 -4.91796875 2.8828125 C-4.39847656 2.23699219 -3.87898438 1.59117188 -3.34375 0.92578125 C-1.91796875 -0.1171875 -1.91796875 -0.1171875 0 0 Z "
		fill="#FAA" transform="translate(108.91796875,90.1171875)" />
	<path
		d="M0 0 C0.72392441 -0.0049649 1.44784882 -0.00992981 2.19371033 -0.01504517 C4.58829703 -0.02964872 6.98281749 -0.03646556 9.37744141 -0.04199219 C11.04269411 -0.04774489 12.70794679 -0.05350261 14.37319946 -0.05926514 C17.86517648 -0.06976981 21.3571305 -0.07561605 24.84912109 -0.07910156 C29.32035616 -0.08458687 33.79128679 -0.10861778 38.26242638 -0.13707352 C41.70255416 -0.15571022 45.14260874 -0.16090603 48.58278275 -0.16243744 C50.2309905 -0.16546189 51.87919703 -0.17348346 53.52735519 -0.18662262 C55.83487785 -0.20370596 58.14165826 -0.20179769 60.44921875 -0.1953125 C62.41754166 -0.20078094 62.41754166 -0.20078094 64.42562866 -0.20635986 C68.90054429 0.27331304 71.4225968 1.82844343 74.66650391 4.84863281 C76.4104718 8.24478083 76.53481897 11.47155442 75.85400391 15.16113281 C74.0603648 17.97116742 72.83519455 19.67053749 69.85400391 21.16113281 C67.40893108 21.26952479 64.99190303 21.31843814 62.54614258 21.32226562 C61.79310349 21.32723053 61.04006439 21.33219543 60.26420593 21.33731079 C57.76678562 21.35194511 55.26942885 21.35873696 52.77197266 21.36425781 C51.03802997 21.37000879 49.3040873 21.37576653 47.57014465 21.38153076 C43.93095605 21.39204475 40.29178955 21.39788462 36.65258789 21.40136719 C31.99187979 21.40684882 27.33146429 21.43086799 22.67084789 21.45933914 C19.08745982 21.47797478 15.50414205 21.48317164 11.92070961 21.48470306 C10.20272537 21.48772869 8.48474235 21.49575421 6.76680565 21.50888824 C4.36099469 21.52596623 1.95589601 21.52406431 -0.44995117 21.51757812 C-1.51230988 21.5314003 -1.51230988 21.5314003 -2.59613037 21.54550171 C-6.95219427 21.50876074 -9.66725875 20.80449328 -13.14599609 18.16113281 C-15.67206734 14.51402402 -15.27767251 11.51898119 -14.69287109 7.28613281 C-13.92524089 4.30334117 -12.63676472 2.91932243 -10.14599609 1.16113281 C-6.59525029 -0.02244912 -3.74899558 0.01953127 0 0 Z "
		fill="#000" transform="translate(35.14599609375,451.8388671875)" />
	<path
		d="M0 0 C1.05706398 -0.01073296 1.05706398 -0.01073296 2.13548279 -0.02168274 C4.45492237 -0.03853223 6.7724186 -0.01919228 9.09179688 0.00219727 C10.70935221 0.00136821 12.32690746 -0.00109258 13.94445801 -0.00511169 C17.33058097 -0.00796709 20.71604152 0.00670538 24.10205078 0.03417969 C28.43670852 0.06826278 32.77018212 0.06224224 37.10489655 0.04351711 C40.44388655 0.03293515 43.78260226 0.04189565 47.12156677 0.05690193 C48.71950973 0.06207548 50.31748144 0.06161198 51.91542053 0.05535698 C54.15126875 0.04988997 56.38543712 0.07032377 58.62109375 0.09765625 C59.89174683 0.10385483 61.1623999 0.11005341 62.47155762 0.11643982 C66.37752635 0.71849635 68.02959532 1.87844582 70.81054688 4.63110352 C72.41608631 7.84218239 72.28523744 11.14781079 71.81054688 14.63110352 C69.91802857 17.97940513 68.6324425 19.29643787 65.07066345 20.74674988 C61.65826045 21.6724134 58.80417713 21.89124181 55.27368164 21.90576172 C53.35622887 21.92005974 53.35622887 21.92005974 51.40003967 21.93464661 C50.01734388 21.93438515 48.63464806 21.93344797 47.25195312 21.93188477 C45.81998064 21.93577663 44.3880093 21.94011231 42.95603943 21.94487 C39.96113332 21.95231226 36.96634515 21.95205537 33.97143555 21.94677734 C30.14724764 21.94098374 26.32354423 21.95792031 22.49943638 21.98112202 C19.54389152 21.99590477 16.58846217 21.99672495 13.63288689 21.99361229 C12.22358172 21.99412317 10.8142697 21.99931686 9.40500069 22.00942421 C-4.37836689 22.09616089 -4.37836689 22.09616089 -10.18945312 18.63110352 C-13.06379606 15.48729093 -13.18945312 13.92868913 -13.18945312 9.63110352 C-12.47297904 2.22753793 -6.59857873 0.00499449 0 0 Z "
		fill="#000" transform="translate(87.189453125,393.368896484375)" />
	<path
		d="M0 0 C1.20348083 -0.00717545 1.20348083 -0.00717545 2.43127441 -0.01449585 C4.12233448 -0.01788817 5.81346071 -0.00873233 7.50439453 0.01220703 C10.08645444 0.03898683 12.66416834 0.01244154 15.24609375 -0.01953125 C16.89323872 -0.01622703 18.54038099 -0.00982052 20.1875 0 C20.95533813 -0.01012115 21.72317627 -0.02024231 22.51428223 -0.03067017 C26.5651507 0.05748281 28.37735396 0.48757205 31.55664062 3.08056641 C34.20297701 6.43669436 34.78853373 7.85406668 34.46875 12.0390625 C34.03156552 15.57060467 33.79096957 16.45085215 31.28125 19.1640625 C24.78310684 22.7909331 17.53305282 21.88569359 10.28125 21.9140625 C8.97478516 21.9346875 7.66832031 21.9553125 6.32226562 21.9765625 C-5.96189144 22.02652348 -5.96189144 22.02652348 -11.40625 18.6640625 C-13.50687755 15.51312117 -13.74938286 14.4416259 -13.84375 10.7890625 C-13.88371094 9.94601562 -13.92367188 9.10296875 -13.96484375 8.234375 C-12.37075736 0.89934813 -6.54576755 -0.08628215 0 0 Z "
		fill="#000" transform="translate(13.40625,393.3359375)" />
	<path
		d="M0 0 C3.23929605 2.36569115 4.81751169 5.02672899 5.5625 9 C4.85075594 12.79596829 3.42624689 15.01918239 1 18 C-2.63782632 19.21260877 -5.17735999 19.39544552 -9 19 C-12.57513152 16.04663048 -14.74364334 13.87994881 -15.375 9.25 C-14.8528401 4.7246142 -13.15770622 3.2328897 -10 0 C-6.69632961 -1.65183519 -3.41266608 -1.05707821 0 0 Z "
		fill="#000" transform="translate(209,288)" />
</svg>